<svg width="20" height="18" viewBox="0 0 20 18" fill="none" xmlns="http://www.w3.org/2000/svg">
<path d="M6.58205 1.87891L10 5.51172L13.418 1.87891H6.58205ZM14.9961 2.9375L12.1719 5.94141H17.211L15 2.9375H14.9961ZM16.9492 7.81641H3.0508L10 15.4844L16.9492 7.81641ZM2.79298 5.94141H7.83205L5.00783 2.9375L2.79689 5.94141H2.79298ZM19.7578 7.50781L10.6953 17.5078C10.5195 17.7031 10.2656 17.8164 10 17.8164C9.73439 17.8164 9.48439 17.7031 9.3047 17.5078L0.242202 7.50781C-0.0585791 7.17578 -0.0820167 6.67969 0.183608 6.32031L4.55861 0.382813C4.73439 0.144531 5.01564 0 5.31251 0H14.6875C14.9844 0 15.2656 0.140625 15.4414 0.382813L19.8164 6.32031C20.082 6.67969 20.0547 7.17578 19.7578 7.50781Z" fill="black"/>
</svg>
