<svg width="15" height="20" viewBox="0 0 15 20" fill="none" xmlns="http://www.w3.org/2000/svg">
<path d="M7.5 0C11.6406 0 15 3.29688 15 7.36719C15 12.0273 10.3047 17.6133 8.34375 19.7422C7.88281 20.2422 7.11719 20.2422 6.65234 19.7422C4.69141 17.6094 0 12.0273 0 7.36719C0 3.29688 3.35938 0 7.5 0ZM7.5 1.875C4.36328 1.875 1.875 4.36328 1.875 7.36719C1.875 9.14844 2.80469 11.332 4.17578 13.5039C5.28125 15.2539 6.55859 16.8125 7.5 17.8789C8.44141 16.8125 9.71875 15.2539 10.8242 13.5039C12.1953 11.3359 13.125 9.14844 13.125 7.36719C13.125 4.36719 10.6367 1.875 7.5 1.875ZM7.5 13.75C7.16848 13.75 6.85054 13.6183 6.61612 13.3839C6.3817 13.1495 6.25 12.8315 6.25 12.5C6.25 12.1685 6.3817 11.8505 6.61612 11.6161C6.85054 11.3817 7.16848 11.25 7.5 11.25C7.83152 11.25 8.14946 11.3817 8.38388 11.6161C8.6183 11.8505 8.75 12.1685 8.75 12.5C8.75 12.8315 8.6183 13.1495 8.38388 13.3839C8.14946 13.6183 7.83152 13.75 7.5 13.75ZM7.5 3.75C8.21094 3.75 8.77734 4.35547 8.72656 5.06641L8.4375 9.12891C8.40234 9.62109 7.99219 10 7.50391 10C7.01172 10 6.60547 9.62109 6.57031 9.12891L6.28125 5.06641C6.22266 4.35547 6.78906 3.75 7.5 3.75Z" fill="black"/>
</svg>
